<?xml version="1.0" encoding="utf-8"?>
<!--Designed by Vexels.com - 2017 All Rights Reserved - https://vexels.com/terms-and-conditions/-->
<!DOCTYPE svg PUBLIC "-//W3C//DTD SVG 1.1//EN" "http://www.w3.org/Graphics/SVG/1.1/DTD/svg11.dtd">
<svg version="1.1" id="Capa_1" xmlns="http://www.w3.org/2000/svg" xmlns:xlink="http://www.w3.org/1999/xlink" x="0px" y="0px"
	 width="1200px" height="1200px" viewBox="0 0 1200 1200" enable-background="new 0 0 1200 1200" xml:space="preserve">
<g>
	<path fill="#294266" d="M763.112,565.794c1.628,1.628,46.688-2.722,46.688-2.722s-20.083,21.178-10.858,58.097
		c9.232,36.918,15.197,40.165,32.032,44.513c-24.429,9.773-53.209,9.773-53.209,9.773L763.112,565.794z"/>
	<path fill="#294266" d="M783.738,649.945l10.865,20.624c0,0,30.401-3.261,37.458-4.888c7.057-1.623,16.283-15.202,16.823-35.831
		C849.433,609.227,783.738,649.945,783.738,649.945z"/>
	<path fill="#4A7DA0" d="M799.212,564.707c0,0,15.472-2.716,20.36-6.506c4.887-3.805,16.292-16.562,20.635-27.15
		c4.342-10.582,16.28-7.598,26.597-15.744c17.645,13.846,42.35,33.395,42.35,33.395l9.768-7.612c0,0-4.338-9.222,2.994-16.547
		c7.331-7.333,19.543-12.228,19.543-12.228l26.328-28.768c0,0,10.584-0.006,11.127,9.225c0.548,9.233-5.965,12.491-8.957,14.939
		c-2.982,2.435-15.469,3.251-19,6.508c10.315,7.049,10.862,14.666,6.518,21.445c-4.345,6.782-15.204,8.141-16.559,12.214
		c-1.36,4.071-3.53,4.886-1.902,12.217c1.627,7.334-1.359,10.586-2.982,13.571c-1.632,2.986-2.992,8.414-3.264,11.941
		c-0.271,3.529-2.439,10.049-7.868,14.932c-5.433,4.891-11.403,9.772-17.376,16.289c-5.963,6.512-5.428,10.055-22.805,12.763
		c-17.367,2.711-28.496,1.901-32.301,2.979c-3.798,1.094-37.186,28.232-37.186,28.232s-21.987-2.99-24.705-40.719
		C787.811,582.363,799.212,564.707,799.212,564.707z"/>
	<polygon fill="#E8BB62" points="1058.182,326.918 1075.827,362.748 911.869,550.593 882.552,525.899 	"/>
	<path fill="#294266" d="M1057.911,329.632c0,0-33.39-4.88-45.876-24.161c-3.261,4.342-7.062,8.96-7.062,8.96l-57.816-41.261
		l-144.685,187.3l79.534,66.773L1057.911,329.632z"/>
	<path fill="#3A6289" d="M250.605,1109.248c0,0,35.287,28.225,77.639,36.363c42.343,8.148,141.149,7.068,184.039-21.712
		c42.896-28.776,141.71-191.104,137.359-303.485c7.599,32.572,14.118,48.324,19.547,52.664c7.05,25.51,22.258,30.943,22.258,30.943
		l20.63,41.26c0,0-16.292,28.229-13.033,52.666c3.256,24.432,5.438,37.457,27.149,41.802c21.714,4.345,45.606,12.481,58.638,15.198
		c13.023,2.721,47.227,3.799,73.832-17.912c26.602-21.721,34.2-53.753,34.2-53.753l7.604,6.513l20.084-19.537
		c0,0,6.519-11.938-9.77-22.257c9.77-15.743,2.171-24.435,2.171-24.435s5.427-19.008-22.806-13.577
		c-5.43-27.683-13.567-45.601-29.858-58.085c-16.288-12.491-36.371-96.638-48.318-137.354c-11.94-40.723-9.769-77.098-15.196-96.637
		c-5.432-19.551-21.178-48.865-21.178-48.865s-12.484-53.201-42.892-77.091c-30.405-23.889-66.231-39.095-92.294-34.748
		c-26.055,4.342-51.033,24.425-70.035,47.229c-19.001,22.799-52.115,58.084-70.036,100.977
		c-17.919,42.898-86.86,127.59-102.059,178.078c-15.206,50.491-24.981,68.41-35.292,86.869
		c-10.313,18.455-13.031,29.848-17.922,41.799c-4.884,11.941-19,25.514-24.974,43.976c-5.972,18.46-16.287,38.003-33.114,65.149
		C270.147,1048.436,245.178,1092.416,250.605,1109.248z"/>
	<path fill="#294266" d="M732.166,1030.518c0,0-19.543,30.938-15.742,59.178c-2.172,9.767-3.801,27.133,19.538,35.826
		c23.348,8.691,59.177,9.234,86.863,9.234c27.688,0,97.177,6.521,131.929,6.521c34.748,0,98.271-8.149,121.073-21.181
		c22.803-13.025,28.776-24.976,24.97-40.717c5.972-3.256,8.695-10.316,8.695-16.291c0-5.962,1.625-16.284-4.35-22.801
		c-5.974-6.514-11.394-10.852-30.404-10.852c-18.995,0-40.722,0.547-51.032-1.63c-10.312-2.174-19.008-7.597-27.689-12.491
		c-8.687-4.883-31.487-8.68-43.434-19.545c-11.943-10.857-21.166-20.627-24.43-20.627c-3.255,0-13.57-7.594-13.57-7.594
		l-15.199,12.48l-11.95-2.17c0,0-10.854,40.722-39.633,56.465C819.034,1050.064,759.857,1045.72,732.166,1030.518z"/>
	<path fill="#294266" d="M321.729,334.513l15.2-33.114c0,0,71.121,36.38,106.951,65.145c35.833,28.774,76.553,61.889,79.268,79.263
		c2.713,17.38-3.796,36.919-3.796,36.919s5.421,80.359-1.091,107.502c17.371,14.654,21.714,17.906,21.714,17.906
		s7.601,1.625,8.146,7.599c14.113,9.772,34.2,35.837,35.826,42.35c9.778,11.399,0,22.804,0,22.804s17.376,0.538,20.088,12.484
		c27.148,4.889,114.015,24.431,129.215,25.521c15.201,1.09,20.087-3.803,32.033-2.17c11.943,1.633,74.924,19.546,74.924,19.546
		s26.054,36.92,17.369,68.405c-8.685,31.488-24.428,39.639-34.745,45.604c-10.313,5.971-29.86,5.42-36.376,9.226
		c-6.514,3.805-9.768,7.608-17.367,10.322c-7.609,2.704-21.724,1.629-23.351,1.629c-1.625,0-13.032,1.075-13.032,1.075
		s-5.431,5.44-24.432,0.551c-18.997-4.885-30.397-11.942-49.943-13.027c-19.544-1.088-60.802-8.146-60.802-8.146
		s-8.15,0.545-13.581-1.629c-5.426-2.176-14.107-0.004-18.454-2.176c-4.346-2.17-13.571,0-18.456-3.255
		c-4.881-3.261-11.95-13.026-27.686-20.629c-15.746-7.601-91.213-67.313-99.898-78.174c-15.743,24.428-30.951,79.264-36.919,97.724
		c-5.973,18.456-22.259,38.541-26.06,51.029c-3.799,12.483-7.603,23.341-17.919,37.463c-10.312,14.113-17.919,30.391-25.517,51.024
		c-7.599,20.641-27.685,50.491-36.373,63.521s-19.542,29.864-17.919,45.063c1.632,15.203,5.973,31.49,5.973,35.837
		c0,4.345-13.569,4.886-34.203-0.545c-20.627-5.431-50.489-14.658-71.662-23.89c-21.177-9.232-33.662-18.46-35.291-38.55
		c-1.624-20.088-13.574-146.584-13.574-146.584s-3.797-17.372-1.624-29.854c-9.232-23.341-10.315-55.919-10.315-55.919
		S79.588,730.299,99.675,630.4c20.092-99.904,125.96-189.475,147.671-214.994c7.604-21.175,32.571-32.025,47.775-37.459
		C298.926,345.372,306.522,331.252,321.729,334.513z"/>
	<path fill="#4A7DA0" d="M823.369,737.885c0,0-5.426-4.338-8.138-11.941c-2.713-7.604-3.261-11.393-3.261-11.393
		s8.144,7.051,17.377,11.393c9.229,4.348,20.088,7.06,28.776,8.683c8.68,1.634,20.629,8.146,26.057,23.897
		c5.426,15.744,5.426,38.545-1.087,50.49c-6.514,11.944-8.146,15.202-14.664,23.893c-6.513,8.678-8.683,14.115-10.854,21.169
		c-2.173,7.054-8.144,16.28-13.027,12.478c-4.894-3.791-8.144-25.507-8.144-34.737c0-9.231,3.802-55.37,3.25-62.437
		C839.118,762.317,823.369,737.885,823.369,737.885z"/>
	<path fill="#4A7DA0" d="M342.221,308.045c0,0-2.037-15.064-7.327-28.504c-5.298-13.436-19.95-39.09-28.908-49.674
		c-8.961-10.59-17.513-39.5-9.362-69.22c-3.671-19.141,4.065-63.116,42.751-72.886c9.366-21.174,32.164-35.834,60.26-31.764
		c29.729-4.477,48.859,2.041,60.67,6.517c11.809,4.479,25.245,2.446,34.613,5.699c9.367,3.259,20.355,6.923,20.355,6.923
		s16.292-10.586,32.575-8.96c-6.923,0.816-0.406,5.296,5.296,7.334c5.693,2.036,15.469,2.438,20.766,5.29
		c5.292,2.851,13.843-3.664,8.145-6.104c13.028,4.881,20.356,12.622,22.803,32.979c2.438,20.359-13.438,38.686-38.276,37.463
		c6.514,21.171,12.218,35.423,15.881,44.379c3.663,8.959,6.508,19.143,4.07,25.247c-2.446,6.106,0,15.878,4.071,23.614
		c4.073,7.736,16.692,28.101,20.36,34.612c3.663,6.515,4.887,13.033-4.887,17.915c-9.772,4.891-17.511,3.258-18.324,8.553
		c-0.814,5.291,1.217,9.772,1.217,12.214c0,2.445-2.438,6.921-10.581,9.772c4.886,4.889,5.296,8.96,1.221,13.03
		c-4.073,4.073-7.335,6.923-5.292,14.251c2.034,7.33,2.44,16.29-1.223,21.989c-3.666,5.699-10.586,12.218-27.28,10.181
		c-16.695-2.043-34.198-6.921-41.124-8.147c-6.926-1.222-10.591-2.847-14.254,6.923c-3.665,9.772-8.957,24.84-8.957,24.84
		L342.221,308.045z"/>
	<path fill="#294266" d="M305.985,229.867c8.958,10.584,23.61,36.238,28.908,49.674c5.29,13.439,7.327,28.504,7.327,28.504
		l37.217,25.244c4.507-7.48,12.117-21.977,14.087-37.459c2.855-22.395-5.702-67.188,22.397-76.146
		c28.093-8.951,50.896,13.849,59.047,37.056c12.21-5.293,12.21-15.064,9.771-20.361c-2.447-5.296,3.251-6.923,6.104-13.842
		c2.853-6.923-8.957-19.95,1.221-24.023c10.178-4.072,27.689-10.996,31.764-21.988c4.069-10.996-1.636-19.547,2.842-29.319
		c4.481-9.767,13.849-8.142,22.399-7.327c8.554,0.818,6.928,2.035,17.511,3.26c2.166,0.107,4.229,0.01,6.249-0.168
		c1.175,0.25,2.415,0.457,3.776,0.545c2.204,0.081,4.624,0.066,7.08-0.539c2.484-0.464,4.962-1.47,7.383-2.68
		c2.406-1.295,4.673-2.932,6.814-4.763c2.077-2.036,3.987-3.894,5.616-6.415c0.92-1.143,1.532-2.443,2.187-3.707
		c0.712-1.243,1.216-2.558,1.659-3.896c0.523-1.31,0.897-2.646,1.147-3.994c0.336-1.328,0.586-2.657,0.69-3.98
		c0.369-2.63,0.376-5.206,0.268-7.617c-0.08-2.425-0.393-4.689-0.728-6.767c-1.438-8.324-3.866-13.437-3.866-13.437
		s2.243,5.209,3.37,13.51c0.248,2.077,0.472,4.324,0.472,6.715c0.019,2.379-0.081,4.905-0.538,7.447
		c-0.146,1.293-0.44,2.572-0.813,3.852c-0.287,1.297-0.701,2.57-1.25,3.81c-0.465,1.267-0.994,2.515-1.724,3.673
		c-0.667,1.186-1.296,2.402-2.182,3.422c-1.459,2.166-3.645,4.167-5.563,5.903c-2.103,1.681-4.298,3.134-6.562,4.251
		c-1.926,0.871-3.846,1.529-5.743,1.946c14.229-5.833,22.317-19.639,20.531-34.573c-2.446-20.356-9.774-28.098-22.803-32.979
		c5.698,2.439-2.853,8.954-8.145,6.104c-5.297-2.852-15.072-3.254-20.766-5.29c-5.702-2.038-12.219-6.518-5.296-7.334
		c-16.283-1.626-32.575,8.96-32.575,8.96s-10.988-3.664-20.355-6.923c-6.667-2.319-15.393-1.983-24.125-3.192
		c-1.401-1.452-3.016-2.984-5.024-4.377c-1.065-0.939-2.479-1.451-3.759-2.219c-1.31-0.744-2.835-1.06-4.273-1.61
		c-1.518-0.172-3.042-0.667-4.571-0.542c-1.547-0.07-3.041,0.108-4.478,0.402c-0.246,0.051-0.452,0.146-0.688,0.203
		c-0.202-0.143-0.366-0.301-0.592-0.42c-1.122-0.646-2.193-1.561-3.527-2.082c-1.31-0.531-2.615-1.301-4.092-1.616
		c-1.445-0.443-2.929-0.825-4.464-0.959c-6.148-0.901-12.335,0.611-16.637,2.251c-0.458,0.174-0.817,0.352-1.238,0.527
		c-5.49,0.071-11.354,0.447-17.815,1.418c-0.803-0.109-1.585-0.164-2.372-0.244c-0.684-0.579-1.448-1.203-2.438-1.775
		c-0.852-0.531-1.78-1.096-2.757-1.695c-1.026-0.496-2.183-0.916-3.351-1.404c-1.186-0.446-2.526-0.569-3.847-0.873
		c-1.339,0.057-2.767-0.148-4.119,0.229c-5.692,1.008-9.771,5.531-12.019,8.877c-0.109,0.173-0.185,0.31-0.296,0.476
		c-4.649,1.913-8.94,4.392-12.779,7.369c-0.59-0.532-1.133-1.052-1.821-1.612c-1.267-0.882-2.498-1.992-4.087-2.811
		c-1.491-0.968-3.271-1.642-5.112-2.312c-1.938-0.423-3.979-0.778-6.089-0.37c-1.079-0.016-2.01,0.584-2.994,0.965l-1.448,0.635
		l-1.195,1.012c-0.763,0.702-1.651,1.291-2.289,2.085l-1.748,2.457c-1.3,1.551-1.851,3.45-2.699,5.118
		c-0.268,0.532-0.463,1.074-0.685,1.615c-1.619,0.151-3.222,0.467-4.752,1.057c-1.496,0.572-2.756,1.985-2.899,3.5
		c-0.198,1.472,0.121,2.783,0.382,3.973c0.231,0.854,0.491,1.559,0.747,2.277c-0.367,0.156-0.738,0.275-1.105,0.438
		c-1.525,0.964-3.245,1.922-4.139,3.563c-1.268,1.393-1.531,3.205-2.021,4.825c-0.243,1.652-0.063,3.293-0.106,4.812
		c0.025,0.158,0.066,0.285,0.093,0.443c-1.194,1.036-2.005,2.414-2.925,3.646c-0.827,1.408-1.366,2.953-1.996,4.365
		c-0.344,1.513-0.673,2.978-0.988,4.362c-0.109,1.015-0.14,1.931-0.186,2.857c-9.345,16.284-11.094,35.702-8.97,46.791
		C288.473,190.367,297.024,219.277,305.985,229.867z M450.826,59.24c-0.2-0.181-0.336-0.353-0.553-0.524
		c-0.014-0.013-0.031-0.026-0.052-0.047c0.97-0.212,1.937-0.444,2.972-0.466c1.381-0.227,2.785,0.157,4.201,0.209
		c1.353,0.426,2.804,0.611,4.086,1.217c1.247,0.662,2.645,1.041,3.724,1.879c1.757,1.041,3.216,2.215,4.554,3.379
		c-3.199-0.49-6.376-1.203-9.454-2.372C457.57,61.479,454.396,60.333,450.826,59.24z M449.637,58.875
		c-0.079-0.023-0.17-0.045-0.251-0.07c0.045-0.014,0.093-0.004,0.133-0.018C449.558,58.811,449.603,58.846,449.637,58.875z
		 M424.825,54.729c3.135-0.942,6.685-1.592,10.339-1.305c1.457,0.021,2.88,0.292,4.274,0.618c1.444,0.185,2.717,0.851,4.021,1.273
		c1.319,0.411,2.406,1.231,3.539,1.777c0.033,0.018,0.063,0.041,0.093,0.058c-0.63,0.174-1.263,0.34-1.853,0.551
		C439.438,56.25,432.648,55.127,424.825,54.729z M319.542,86.139c0.222,0.578,0.459,1.176,0.643,1.625
		c0.553,1.295,0.864,2.031,0.864,2.031s-0.268-0.753-0.733-2.078c-0.149-0.462-0.348-1.071-0.544-1.656
		c0.8-0.266,1.613-0.47,2.447-0.611c-0.719,3.679-1.17,5.971-1.17,5.971s0.583-2.33,1.508-6.027
		c0.265-0.037,0.513-0.121,0.776-0.139c0.243-0.043,0.493-0.032,0.741-0.063c0,0.012-0.007,0.023-0.007,0.03
		c-0.13,1.522-0.244,2.96-0.35,4.283c0.009,1.138,0.021,2.144,0.038,3.099c-1.13,0.213-2.275,0.438-3.449,0.854
		c-1.503,0.451-2.981,1.167-4.431,1.93c-1.229,0.778-2.455,1.6-3.523,2.615c0.122-1.42,0.055-2.944,0.358-4.432
		c0.554-1.458,0.865-3.087,2.061-4.227c0.833-1.377,2.417-2.111,3.792-2.883C318.891,86.336,319.214,86.253,319.542,86.139z
		 M329.153,73.445l1.278-1.488c0.469-0.711,1.268-1.042,1.917-1.522c0.656-0.487,1.335-0.918,2.137-1.085
		c1.473-0.652,3.087-0.682,4.606-0.779c1.552,0.182,3.044,0.281,4.439,0.742c1.396,0.281,2.66,0.9,3.855,1.313
		c1.014,0.457,1.885,0.908,2.702,1.345c-0.57,0.587-1.144,1.171-1.683,1.774c-3.479-0.947-7.362-1.793-11.441-1.945
		C334.33,71.729,331.439,72.027,329.153,73.445z M346.134,76.46c-1.936-0.577-4.022-1.169-6.339-1.628
		c-2.609-0.563-5.434-0.986-8.304-1.113c1.69-0.424,3.568-0.471,5.379-0.305c3.469,0.365,6.83,1.271,9.904,2.291
		C346.56,75.956,346.337,76.199,346.134,76.46z M344.534,78.684c-1.242,1.775-2.398,3.616-3.419,5.532
		c-1.13-0.228-2.397-0.464-3.83-0.687c-2.621-0.451-5.74-0.691-9.086-0.705c-0.495,0.041-1.006,0.061-1.521,0.088
		c-0.052-0.337-0.134-0.619-0.171-0.975c-0.071-1.143-0.091-2.386,0.194-3.633c0.137-0.613,0.372-1.213,0.687-1.767
		c0.003-0.007,0.003-0.013,0.009-0.021c0.29-0.496,0.677-0.932,1.104-1.328c0.569,0.033,1.143,0.01,1.699,0.067
		c3.129,0.222,6.229,0.924,9.07,1.738C341.171,77.498,342.899,78.09,344.534,78.684z M326.239,82.945
		c-0.355,0.018-0.702,0.072-1.058,0.094c0.178-0.766,0.402-1.539,0.652-2.314c0.017-0.051,0.037-0.098,0.05-0.148
		c0.022,0.48,0.063,0.968,0.116,1.418C326.067,82.348,326.156,82.61,326.239,82.945z M324.283,83.167
		c-0.407,0.054-0.806,0.075-1.214,0.172c0.122-0.501,0.229-0.931,0.367-1.466c0.829-2.012,1.456-4.394,2.453-6.794
		c0.24-0.003,0.475,0.022,0.702,0.029c-0.06,0.128-0.121,0.27-0.188,0.397c-0.836,1.606-1.226,3.309-1.561,4.953
		C324.602,81.379,324.42,82.279,324.283,83.167z M324.95,75.149c-0.807,2.349-1.316,4.647-2.004,6.593
		c-0.122,0.623-0.219,1.123-0.338,1.705c-1.122,0.197-2.218,0.541-3.307,0.967c-0.204-0.72-0.411-1.428-0.581-2.261
		c-0.191-1.163-0.406-2.46-0.145-3.728c0.232-1.281,1.221-2.23,2.556-2.678C322.285,75.375,323.607,75.233,324.95,75.149z
		 M353.447,68.812c-0.38,0.319-0.766,0.632-1.134,0.968c-1.132-0.551-2.404-1.127-3.913-1.708c-1.34-0.387-2.706-0.956-4.308-1.198
		c-1.538-0.4-3.257-0.449-5.004-0.529c-1.774,0.197-3.611,0.364-5.324,1.212c-0.912,0.265-1.688,0.807-2.427,1.41
		c-0.729,0.598-1.594,1.056-2.086,1.873l-1.688,2.22c-0.12,0.184-0.176,0.387-0.271,0.578c-0.246,0.008-0.488,0.021-0.73,0.038
		c0.187-0.37,0.338-0.746,0.545-1.113c0.914-1.571,1.549-3.406,2.85-4.791l1.754-2.229c0.629-0.696,1.46-1.173,2.167-1.772
		l1.093-0.846l1.285-0.469c0.859-0.27,1.641-0.782,2.567-0.684c1.769-0.271,3.493,0.146,5.146,0.571
		c1.598,0.698,3.134,1.356,4.462,2.322c1.394,0.793,2.516,1.915,3.625,2.772C352.585,67.922,352.98,68.349,353.447,68.812z
		 M372.699,58.045c1.932-2.625,4.707-5.275,8.416-6.221c1.167-0.447,2.453-0.326,3.681-0.494c1.223,0.194,2.479,0.194,3.638,0.537
		c1.135,0.385,2.271,0.697,3.311,1.1c1.004,0.514,1.94,0.998,2.819,1.441c0.812,0.393,1.487,0.847,2.102,1.28
		C388.056,54.824,379.986,55.732,372.699,58.045z M339.374,87.762c-4.039,1.018-7.663,2.477-11.038,4.178
		c-1.322,0.126-2.752,0.313-4.244,0.577c0.033-0.929,0.075-1.89,0.128-2.98c0.186-1.305,0.385-2.721,0.594-4.212
		c0.007-0.064,0.03-0.127,0.036-0.195c0.637-0.033,1.27-0.079,1.899-0.079c0.281,0.927,0.567,1.72,0.824,2.366
		c0.515,1.256,0.802,1.975,0.802,1.975s-0.24-0.731-0.671-2.022c-0.21-0.632-0.435-1.419-0.649-2.318
		c0.38,0.006,0.755,0.013,1.116,0c3.172,0.21,6.127,0.598,8.621,1.183c1.102,0.235,2.069,0.476,2.983,0.716
		C339.646,87.221,339.496,87.482,339.374,87.762z M325.243,93.574c-0.417,0.25-0.808,0.534-1.224,0.797
		c0.004-0.198,0.019-0.376,0.021-0.578C324.444,93.723,324.854,93.617,325.243,93.574z M313.231,103.377
		c-0.083-0.393-0.216-0.711-0.276-1.135c-0.142-1.021-0.323-2.141-0.48-3.268c1.128-1.146,2.517-1.944,3.864-2.74
		c1.414-0.686,2.85-1.332,4.298-1.715c1.065-0.344,2.108-0.498,3.143-0.677c0.006,0.239,0.013,0.444,0.013,0.677
		C319.779,97.065,316.266,100.051,313.231,103.377z M305.938,113.291c0.059-0.739,0.107-1.445,0.211-2.225
		c0.349-1.357,0.713-2.789,1.101-4.261c0.665-1.364,1.239-2.85,2.078-4.181c0.825-1.035,1.587-2.135,2.553-3.053
		c0.203,0.953,0.402,1.918,0.578,2.778c0.095,0.526,0.284,0.919,0.426,1.397C310.208,106.725,307.91,109.932,305.938,113.291z"/>
</g>
</svg>
